<svg width="57" height="49" viewBox="0 0 57 49" fill="none" xmlns="http://www.w3.org/2000/svg">
<g clip-path="url(#clip0_993_518)" filter="url(#filter0_d_993_518)">
<path d="M47.0886 8.52554H42.019V3.45592C42.019 2.55955 41.6629 1.6999 41.0291 1.06608C40.3953 0.432251 39.5356 0.0761719 38.6393 0.0761719H18.3608C17.4644 0.0761719 16.6048 0.432251 15.9709 1.06608C15.3371 1.6999 14.981 2.55955 14.981 3.45592V8.52554H9.91142C8.56687 8.52554 7.27739 9.05966 6.32665 10.0104C5.37592 10.9611 4.8418 12.2506 4.8418 13.5952V37.2534C4.8418 38.1497 5.19788 39.0094 5.8317 39.6432C6.46553 40.2771 7.32518 40.6331 8.22154 40.6331H48.7785C49.6749 40.6331 50.5345 40.2771 51.1683 39.6432C51.8022 39.0094 52.1583 38.1497 52.1583 37.2534V13.5952C52.1583 12.2506 51.6241 10.9611 50.6734 10.0104C49.7227 9.05966 48.4332 8.52554 47.0886 8.52554ZM18.3608 3.45592H38.6393V8.52554H18.3608V3.45592ZM48.7785 37.2534H8.22154V22.0445H21.7405V30.4939H35.2595V22.0445H48.7785V37.2534ZM25.1203 22.0445H31.8798V27.1141H25.1203V22.0445ZM8.22154 18.6648V13.5952C8.22154 13.147 8.39958 12.7172 8.7165 12.4002C9.03341 12.0833 9.46323 11.9053 9.91142 11.9053H47.0886C47.5368 11.9053 47.9666 12.0833 48.2836 12.4002C48.6005 12.7172 48.7785 13.147 48.7785 13.5952V18.6648H8.22154Z" fill="#0D5C63"/>
</g>
<defs>
<filter id="filter0_d_993_518" x="0.5" y="0" width="56" height="48.709" filterUnits="userSpaceOnUse" color-interpolation-filters="sRGB">
<feFlood flood-opacity="0" result="BackgroundImageFix"/>
<feColorMatrix in="SourceAlpha" type="matrix" values="0 0 0 0 0 0 0 0 0 0 0 0 0 0 0 0 0 0 127 0" result="hardAlpha"/>
<feOffset dy="4"/>
<feGaussianBlur stdDeviation="2"/>
<feComposite in2="hardAlpha" operator="out"/>
<feColorMatrix type="matrix" values="0 0 0 0 0 0 0 0 0 0 0 0 0 0 0 0 0 0 0.25 0"/>
<feBlend mode="normal" in2="BackgroundImageFix" result="effect1_dropShadow_993_518"/>
<feBlend mode="normal" in="SourceGraphic" in2="effect1_dropShadow_993_518" result="shape"/>
</filter>
<clipPath id="clip0_993_518">
<rect width="48" height="40.7089" fill="white" transform="translate(4.5)"/>
</clipPath>
</defs>
</svg>
